<svg width="64" height="64" viewBox="0 0 64 64" fill="none" xmlns="http://www.w3.org/2000/svg">
<path d="M0 12C0 5.37258 5.37258 0 12 0H52C58.6274 0 64 5.37258 64 12V52C64 58.6274 58.6274 64 52 64H12C5.37258 64 0 58.6274 0 52V12Z" fill="#1374B0"/>
<path d="M16.6406 24.4492L10.9922 40H8.68359L15.1875 22.9375H16.6758L16.6406 24.4492ZM21.375 40L15.7148 24.4492L15.6797 22.9375H17.168L23.6953 40H21.375ZM21.082 33.6836V35.5352H11.4961V33.6836H21.082Z" fill="white"/>
<path d="M35.3438 45.3359C35.2969 45.3047 35.2266 45.2266 35.1328 45.1016C35.0234 44.9922 34.9375 44.875 34.875 44.75C34.8125 44.625 34.7891 44.5156 34.8047 44.4219C34.8047 44.3281 34.8906 44.2812 35.0625 44.2812C35.3906 44.7344 35.8516 44.9062 36.4453 44.7969C37.0391 44.6875 37.6797 44.4141 38.3672 43.9766C39.0547 43.5547 39.75 43.0156 40.4531 42.3594C41.1719 41.7188 41.8125 41.0781 42.375 40.4375C42.9531 39.7969 43.4219 39.2188 43.7812 38.7031C44.1562 38.1875 44.3438 37.8438 44.3438 37.6719C44.3438 37.625 44.2812 37.5547 44.1562 37.4609C44.0312 37.3516 43.8828 37.2422 43.7109 37.1328C43.5547 37.0234 43.4062 36.9219 43.2656 36.8281C43.125 36.7344 43.0391 36.6641 43.0078 36.6172C43.0547 36.4609 43.2031 36.3438 43.4531 36.2656C43.7031 36.1719 43.9844 36.0938 44.2969 36.0312C44.6094 35.9531 44.9141 35.8828 45.2109 35.8203C45.5234 35.7422 45.7578 35.6484 45.9141 35.5391C46.7422 34.3359 47.4609 33.2578 48.0703 32.3047C48.6953 31.3359 49.2812 30.3906 49.8281 29.4688C50.3906 28.5312 50.9609 27.5703 51.5391 26.5859C52.1172 25.6016 52.7812 24.4922 53.5312 23.2578C53.7344 22.9141 53.8984 22.7969 54.0234 22.9062C54.1484 23.0156 54.2422 23.2812 54.3047 23.7031C54.3672 24.125 54.4062 24.6641 54.4219 25.3203C54.4375 25.9609 54.4375 26.6562 54.4219 27.4062C54.4062 28.1562 54.375 28.9219 54.3281 29.7031C54.2969 30.4844 54.2578 31.2031 54.2109 31.8594C54.1797 32.5156 54.1484 33.0859 54.1172 33.5703C54.1016 34.0391 54.1016 34.3438 54.1172 34.4844C54.1797 35.2812 54.2188 35.9766 54.2344 36.5703C54.2656 37.1484 54.3438 37.6875 54.4688 38.1875C54.5938 38.6719 54.8047 39.1484 55.1016 39.6172C55.4141 40.0703 55.8828 40.5703 56.5078 41.1172C55.9922 41.2891 55.5625 41.2734 55.2188 41.0703C54.8906 40.8828 54.6172 40.5938 54.3984 40.2031C54.1953 39.7969 54.0234 39.3359 53.8828 38.8203C53.7578 38.2891 53.6328 37.7812 53.5078 37.2969C53.3984 36.7969 53.2656 36.3672 53.1094 36.0078C52.9688 35.6328 52.7734 35.3906 52.5234 35.2812C52.5078 35.2812 52.4609 35.2812 52.3828 35.2812C52.3203 35.2656 52.2422 35.2578 52.1484 35.2578C52.0703 35.2578 51.9922 35.2656 51.9141 35.2812C51.8359 35.2812 51.7812 35.2812 51.75 35.2812C51.6094 35.3125 51.3438 35.375 50.9531 35.4688C50.5781 35.5625 50.1641 35.6641 49.7109 35.7734C49.2578 35.8828 48.8203 35.9922 48.3984 36.1016C47.9922 36.2109 47.6953 36.2891 47.5078 36.3359C47.1172 36.4453 46.7031 36.6953 46.2656 37.0859C45.8438 37.4766 45.3906 37.9531 44.9062 38.5156C44.4375 39.0625 43.9453 39.6641 43.4297 40.3203C42.9297 40.9766 42.4141 41.6172 41.8828 42.2422C41.3516 42.8672 40.8125 43.4453 40.2656 43.9766C39.7188 44.5078 39.1719 44.9375 38.625 45.2656C38.0781 45.5938 37.5312 45.7734 36.9844 45.8047C36.4219 45.8516 35.875 45.6953 35.3438 45.3359ZM48.0469 35.0234C48.0781 35.0391 48.1562 35.0469 48.2812 35.0469C48.4219 35.0469 48.5156 35.0391 48.5625 35.0234C48.8438 34.9766 49.1953 34.9219 49.6172 34.8594C50.0391 34.7969 50.4609 34.7266 50.8828 34.6484C51.3047 34.5547 51.6953 34.4531 52.0547 34.3438C52.4141 34.2188 52.6641 34.0859 52.8047 33.9453C52.8047 33.9453 52.8281 33.7812 52.875 33.4531C52.9219 33.125 52.9766 32.7109 53.0391 32.2109C53.1016 31.6953 53.1641 31.1328 53.2266 30.5234C53.3047 29.8984 53.375 29.2891 53.4375 28.6953C53.5 28.1016 53.5469 27.5547 53.5781 27.0547C53.625 26.5391 53.6562 26.1406 53.6719 25.8594C53.5 25.7812 53.2734 25.9844 52.9922 26.4688C52.7109 26.9375 52.3438 27.5859 51.8906 28.4141C51.4531 29.2422 50.9141 30.2109 50.2734 31.3203C49.6484 32.4141 48.9062 33.5547 48.0469 34.7422V35.0234Z" fill="white"/>
<path d="M26.6464 28.6464C26.4512 28.8417 26.4512 29.1583 26.6464 29.3536L29.8284 32.5355C30.0237 32.7308 30.3403 32.7308 30.5355 32.5355C30.7308 32.3403 30.7308 32.0237 30.5355 31.8284L27.7071 29L30.5355 26.1716C30.7308 25.9763 30.7308 25.6597 30.5355 25.4645C30.3403 25.2692 30.0237 25.2692 29.8284 25.4645L26.6464 28.6464ZM27 29.5L38 29.5V28.5L27 28.5V29.5Z" fill="white"/>
<path d="M38.3536 35.3536C38.5488 35.1583 38.5488 34.8417 38.3536 34.6464L35.1716 31.4645C34.9763 31.2692 34.6597 31.2692 34.4645 31.4645C34.2692 31.6597 34.2692 31.9763 34.4645 32.1716L37.2929 35L34.4645 37.8284C34.2692 38.0237 34.2692 38.3403 34.4645 38.5355C34.6597 38.7308 34.9763 38.7308 35.1716 38.5355L38.3536 35.3536ZM27 35.5H38V34.5H27V35.5Z" fill="white"/>
</svg>
