<svg width="64" height="64" viewBox="0 0 64 64" fill="none" xmlns="http://www.w3.org/2000/svg">
<path d="M0 12C0 5.37258 5.37258 0 12 0H52C58.6274 0 64 5.37258 64 12V52C64 58.6274 58.6274 64 52 64H12C5.37258 64 0 58.6274 0 52V12Z" fill="#1374B0"/>
<path d="M28.6406 22.4492L22.9922 38H20.6836L27.1875 20.9375H28.6758L28.6406 22.4492ZM33.375 38L27.7148 22.4492L27.6797 20.9375H29.168L35.6953 38H33.375ZM33.082 31.6836V33.5352H23.4961V31.6836H33.082Z" fill="white" fill-opacity="0.6"/>
<circle cx="28" cy="30" r="14" stroke="white" stroke-width="4"/>
<path d="M44.3925 49.6424C45.1735 50.4235 46.4398 50.4235 47.2209 49.6424C48.0019 48.8614 48.0019 47.595 47.2209 46.814L44.3925 49.6424ZM36.3127 41.5627L44.3925 49.6424L47.2209 46.814L39.1411 38.7342L36.3127 41.5627Z" fill="white"/>
<path d="M47.8787 54.1213C49.0503 55.2929 50.9497 55.2929 52.1213 54.1213C53.2929 52.9497 53.2929 51.0503 52.1213 49.8787L47.8787 54.1213ZM39.8787 46.1213L47.8787 54.1213L52.1213 49.8787L44.1213 41.8787L39.8787 46.1213Z" fill="white"/>
</svg>
