<svg width="64" height="64" viewBox="0 0 64 64" fill="none" xmlns="http://www.w3.org/2000/svg">
<path d="M0 6C0 2.68629 2.68629 0 6 0H58C61.3137 0 64 2.68629 64 6V58C64 61.3137 61.3137 64 58 64H6C2.68629 64 0 61.3137 0 58V6Z" fill="#BEDBFF"/>
<path d="M16.9348 23.5234L12.7747 37H8.35669L14.6262 19.9375H17.427L16.9348 23.5234ZM20.3801 37L16.2083 23.5234L15.6692 19.9375H18.5051L24.8098 37H20.3801ZM20.2161 30.6367V33.8125H11.4622V30.6367H20.2161ZM33.0247 29.7461H28.6301L28.6067 27.0508H32.1692C32.8098 27.0508 33.3215 26.9805 33.7043 26.8398C34.0872 26.6914 34.3645 26.4766 34.5364 26.1953C34.7161 25.9141 34.8059 25.5625 34.8059 25.1406C34.8059 24.6562 34.7161 24.2656 34.5364 23.9688C34.3567 23.6719 34.0715 23.457 33.6809 23.3242C33.2981 23.1836 32.802 23.1133 32.1926 23.1133H30.177V37H26.0637V19.9375H32.1926C33.2473 19.9375 34.1887 20.0352 35.0168 20.2305C35.845 20.418 36.5481 20.707 37.1262 21.0977C37.7122 21.4883 38.1575 21.9805 38.4622 22.5742C38.7668 23.1602 38.9192 23.8516 38.9192 24.6484C38.9192 25.3438 38.7708 25.9961 38.4739 26.6055C38.177 27.2148 37.6809 27.7109 36.9856 28.0938C36.2981 28.4688 35.3567 28.6641 34.1614 28.6797L33.0247 29.7461ZM32.8606 37H27.634L29.0403 33.8359H32.8606C33.4231 33.8359 33.8723 33.75 34.2083 33.5781C34.552 33.3984 34.7981 33.1641 34.9465 32.875C35.1028 32.5781 35.1809 32.25 35.1809 31.8906C35.1809 31.4531 35.1067 31.0742 34.9583 30.7539C34.8176 30.4336 34.5911 30.1875 34.2786 30.0156C33.9661 29.8359 33.5481 29.7461 33.0247 29.7461H29.5676L29.5911 27.0508H33.7278L34.6887 28.1289C35.8293 28.082 36.7317 28.2422 37.3958 28.6094C38.0676 28.9766 38.5481 29.4609 38.8372 30.0625C39.1262 30.6641 39.2708 31.293 39.2708 31.9492C39.2708 33.0664 39.0286 34 38.5442 34.75C38.0676 35.5 37.3528 36.0625 36.3997 36.4375C35.4465 36.8125 34.2668 37 32.8606 37ZM51.259 31.2227H55.3606C55.3059 32.4102 54.9856 33.457 54.3997 34.3633C53.8137 35.2695 53.0012 35.9766 51.9622 36.4844C50.9309 36.9844 49.7122 37.2344 48.3059 37.2344C47.1653 37.2344 46.1458 37.043 45.2473 36.6602C44.3567 36.2773 43.5989 35.7266 42.9739 35.0078C42.3567 34.2891 41.884 33.418 41.5559 32.3945C41.2356 31.3711 41.0754 30.2188 41.0754 28.9375V28.0117C41.0754 26.7305 41.2434 25.5781 41.5793 24.5547C41.9231 23.5234 42.4075 22.6484 43.0325 21.9297C43.6653 21.2031 44.4231 20.6484 45.3059 20.2656C46.1887 19.8828 47.1692 19.6914 48.2473 19.6914C49.7317 19.6914 50.9856 19.957 52.009 20.4883C53.0325 21.0195 53.8254 21.75 54.3879 22.6797C54.9504 23.6016 55.2825 24.6523 55.384 25.832H51.2825C51.2668 25.1914 51.1575 24.6562 50.9543 24.2266C50.7512 23.7891 50.4309 23.4609 49.9934 23.2422C49.5559 23.0234 48.9739 22.9141 48.2473 22.9141C47.7395 22.9141 47.2981 23.0078 46.9231 23.1953C46.5481 23.3828 46.2356 23.6797 45.9856 24.0859C45.7356 24.4922 45.5481 25.0195 45.4231 25.668C45.3059 26.3086 45.2473 27.082 45.2473 27.9883V28.9375C45.2473 29.8438 45.302 30.6172 45.4114 31.2578C45.5208 31.8984 45.6965 32.4219 45.9387 32.8281C46.1809 33.2344 46.4934 33.5352 46.8762 33.7305C47.2668 33.918 47.7434 34.0117 48.3059 34.0117C48.9309 34.0117 49.4583 33.9141 49.8879 33.7188C50.3176 33.5156 50.6497 33.2109 50.884 32.8047C51.1184 32.3906 51.2434 31.8633 51.259 31.2227Z" fill="#2E2E2E"/>
<path d="M8 43.5L18 49.2735V37.7265L8 43.5ZM17 44.5L56.0104 44.5V42.5L17 42.5V44.5Z" fill="#2E2E2E"/>
</svg>
