<svg width="64" height="64" viewBox="0 0 64 64" fill="none" xmlns="http://www.w3.org/2000/svg">
<path d="M0 6C0 2.68629 2.68629 0 6 0H58C61.3137 0 64 2.68629 64 6V58C64 61.3137 61.3137 64 58 64H6C2.68629 64 0 61.3137 0 58V6Z" fill="#F34637"/>
<path d="M21.0312 22.9375V40H17.082V27.3906L13.1914 28.5273V25.5273L20.668 22.9375H21.0312ZM38.1172 36.9531V40H26.2109V37.4219L31.6953 31.6562C32.1797 31.1016 32.5703 30.6055 32.8672 30.168C33.1641 29.7227 33.3789 29.3203 33.5117 28.9609C33.6523 28.6016 33.7227 28.2773 33.7227 27.9883C33.7227 27.4961 33.6484 27.0859 33.5 26.7578C33.3594 26.4219 33.1484 26.168 32.8672 25.9961C32.5938 25.8242 32.2539 25.7383 31.8477 25.7383C31.4414 25.7383 31.0859 25.8555 30.7812 26.0898C30.4766 26.3242 30.2383 26.6445 30.0664 27.0508C29.9023 27.457 29.8203 27.9141 29.8203 28.4219H25.8594C25.8594 27.375 26.1133 26.418 26.6211 25.5508C27.1367 24.6836 27.8516 23.9922 28.7656 23.4766C29.6797 22.9531 30.7383 22.6914 31.9414 22.6914C33.1992 22.6914 34.2539 22.8867 35.1055 23.2773C35.957 23.668 36.5977 24.2344 37.0273 24.9766C37.4648 25.7109 37.6836 26.5977 37.6836 27.6367C37.6836 28.2305 37.5898 28.8008 37.4023 29.3477C37.2148 29.8945 36.9453 30.4375 36.5938 30.9766C36.2422 31.5078 35.8125 32.0547 35.3047 32.6172C34.8047 33.1797 34.2344 33.7773 33.5938 34.4102L31.3906 36.9531H38.1172ZM43.7305 29.8164H45.6523C46.1445 29.8164 46.5469 29.7305 46.8594 29.5586C47.1797 29.3789 47.418 29.1289 47.5742 28.8086C47.7305 28.4805 47.8086 28.0938 47.8086 27.6484C47.8086 27.3047 47.7344 26.9883 47.5859 26.6992C47.4453 26.4102 47.2266 26.1797 46.9297 26.0078C46.6328 25.8281 46.2539 25.7383 45.793 25.7383C45.4805 25.7383 45.1758 25.8047 44.8789 25.9375C44.582 26.0625 44.3359 26.2422 44.1406 26.4766C43.9531 26.7109 43.8594 26.9961 43.8594 27.332H39.8984C39.8984 26.3633 40.1641 25.5352 40.6953 24.8477C41.2344 24.1523 41.9414 23.6211 42.8164 23.2539C43.6992 22.8789 44.6484 22.6914 45.6641 22.6914C46.875 22.6914 47.9375 22.8789 48.8516 23.2539C49.7656 23.6211 50.4766 24.168 50.9844 24.8945C51.5 25.6133 51.7578 26.5039 51.7578 27.5664C51.7578 28.1523 51.6211 28.7031 51.3477 29.2188C51.0742 29.7344 50.6914 30.1875 50.1992 30.5781C49.707 30.9688 49.1289 31.2773 48.4648 31.5039C47.8086 31.7227 47.0898 31.832 46.3086 31.832H43.7305V29.8164ZM43.7305 32.7578V30.7891H46.3086C47.1602 30.7891 47.9375 30.8867 48.6406 31.082C49.3438 31.2695 49.9492 31.5508 50.457 31.9258C50.9648 32.3008 51.3555 32.7656 51.6289 33.3203C51.9023 33.8672 52.0391 34.4961 52.0391 35.207C52.0391 36.0039 51.8789 36.7148 51.5586 37.3398C51.2383 37.9648 50.7891 38.4922 50.2109 38.9219C49.6328 39.3516 48.957 39.6797 48.1836 39.9062C47.4102 40.125 46.5703 40.2344 45.6641 40.2344C44.9531 40.2344 44.2422 40.1406 43.5312 39.9531C42.8203 39.7578 42.1719 39.4609 41.5859 39.0625C41 38.6562 40.5273 38.1406 40.168 37.5156C39.8164 36.8828 39.6406 36.1289 39.6406 35.2539H43.6016C43.6016 35.6133 43.6992 35.9414 43.8945 36.2383C44.0977 36.5273 44.3672 36.7578 44.7031 36.9297C45.0391 37.1016 45.4023 37.1875 45.793 37.1875C46.2773 37.1875 46.6875 37.0977 47.0234 36.918C47.3672 36.7305 47.6289 36.4805 47.8086 36.168C47.9883 35.8555 48.0781 35.5078 48.0781 35.125C48.0781 34.5469 47.9805 34.0859 47.7852 33.7422C47.5977 33.3984 47.3203 33.1484 46.9531 32.9922C46.5938 32.8359 46.1602 32.7578 45.6523 32.7578H43.7305Z" fill="white"/>
</svg>
