<svg width="64" height="64" viewBox="0 0 64 64" fill="none" xmlns="http://www.w3.org/2000/svg">
<path d="M0 6C0 2.68629 2.68629 0 6 0H58C61.3137 0 64 2.68629 64 6V58C64 61.3137 61.3137 64 58 64H6C2.68629 64 0 61.3137 0 58V6Z" fill="#FFCFCB"/>
<path d="M16.4609 22.2422V20.4375C16.4609 19.1406 16.7422 17.9609 17.3047 16.8984C17.8672 15.8359 18.7109 14.9844 19.8359 14.3438C20.9609 13.7031 22.3594 13.3828 24.0312 13.3828C25.75 13.3828 27.1719 13.7031 28.2969 14.3438C29.4219 14.9844 30.2578 15.8359 30.8047 16.8984C31.3672 17.9609 31.6484 19.1406 31.6484 20.4375V22.2422C31.6484 23.5078 31.3672 24.6719 30.8047 25.7344C30.2578 26.7969 29.4219 27.6484 28.2969 28.2891C27.1875 28.9297 25.7812 29.25 24.0781 29.25C22.3906 29.25 20.9844 28.9297 19.8594 28.2891C18.7344 27.6484 17.8828 26.7969 17.3047 25.7344C16.7422 24.6719 16.4609 23.5078 16.4609 22.2422ZM21.5234 20.4375V22.2422C21.5234 22.7109 21.6172 23.1562 21.8047 23.5781C21.9922 24 22.2734 24.3438 22.6484 24.6094C23.0391 24.8594 23.5156 24.9844 24.0781 24.9844C24.6562 24.9844 25.125 24.8594 25.4844 24.6094C25.8438 24.3438 26.1094 24 26.2812 23.5781C26.4688 23.1562 26.5625 22.7109 26.5625 22.2422V20.4375C26.5625 19.9375 26.4688 19.4766 26.2812 19.0547C26.1094 18.6328 25.8359 18.2969 25.4609 18.0469C25.0859 17.7812 24.6094 17.6484 24.0312 17.6484C23.4844 17.6484 23.0234 17.7812 22.6484 18.0469C22.2734 18.2969 21.9922 18.6328 21.8047 19.0547C21.6172 19.4766 21.5234 19.9375 21.5234 20.4375ZM32.6562 41.4375V39.6328C32.6562 38.3516 32.9375 37.1797 33.5 36.1172C34.0781 35.0547 34.9297 34.2031 36.0547 33.5625C37.1953 32.9219 38.6016 32.6016 40.2734 32.6016C41.9922 32.6016 43.4062 32.9219 44.5156 33.5625C45.6406 34.2031 46.4766 35.0547 47.0234 36.1172C47.5859 37.1797 47.8672 38.3516 47.8672 39.6328V41.4375C47.8672 42.7188 47.5859 43.8906 47.0234 44.9531C46.4766 46.0156 45.6484 46.8672 44.5391 47.5078C43.4297 48.1484 42.0234 48.4688 40.3203 48.4688C38.6328 48.4688 37.2188 48.1484 36.0781 47.5078C34.9375 46.8672 34.0781 46.0156 33.5 44.9531C32.9375 43.8906 32.6562 42.7188 32.6562 41.4375ZM37.7422 39.6328V41.4375C37.7422 41.9219 37.8594 42.375 38.0938 42.7969C38.3281 43.2188 38.6406 43.5625 39.0312 43.8281C39.4219 44.0781 39.8516 44.2031 40.3203 44.2031C41.0391 44.2031 41.5703 44.0781 41.9141 43.8281C42.2734 43.5625 42.5078 43.2188 42.6172 42.7969C42.7422 42.375 42.8047 41.9219 42.8047 41.4375V39.6328C42.8047 39.1484 42.7109 38.6953 42.5234 38.2734C42.3359 37.8516 42.0547 37.5156 41.6797 37.2656C41.3047 37 40.8359 36.8672 40.2734 36.8672C39.7109 36.8672 39.2422 37 38.8672 37.2656C38.4922 37.5156 38.2109 37.8516 38.0234 38.2734C37.8359 38.6953 37.7422 39.1484 37.7422 39.6328ZM42.2422 18.7734L25.5781 45.4453L21.8984 43.5938L38.5625 16.9219L42.2422 18.7734Z" fill="#2E2E2E"/>
</svg>
