<svg width="64" height="64" viewBox="0 0 64 64" fill="none" xmlns="http://www.w3.org/2000/svg">
<path d="M0 6C0 2.68629 2.68629 0 6 0H58C61.3137 0 64 2.68629 64 6V58C64 61.3137 61.3137 64 58 64H6C2.68629 64 0 61.3137 0 58V6Z" fill="#FFCFCB"/>
<path d="M18.875 7.9375V25H14.9258V12.3906L11.0352 13.5273V10.5273L18.5117 7.9375H18.875Z" fill="#2E2E2E"/>
<path d="M46.5469 8.9375L49.3359 14.6094L52.125 8.9375H56.8125L52.0547 17.3984L56.9414 26H52.207L49.3359 20.2227L46.4648 26H41.7188L46.6172 17.3984L41.8477 8.9375H46.5469Z" fill="#2E2E2E"/>
<path d="M47.7305 43.8164H49.6523C50.1445 43.8164 50.5469 43.7305 50.8594 43.5586C51.1797 43.3789 51.418 43.1289 51.5742 42.8086C51.7305 42.4805 51.8086 42.0938 51.8086 41.6484C51.8086 41.3047 51.7344 40.9883 51.5859 40.6992C51.4453 40.4102 51.2266 40.1797 50.9297 40.0078C50.6328 39.8281 50.2539 39.7383 49.793 39.7383C49.4805 39.7383 49.1758 39.8047 48.8789 39.9375C48.582 40.0625 48.3359 40.2422 48.1406 40.4766C47.9531 40.7109 47.8594 40.9961 47.8594 41.332H43.8984C43.8984 40.3633 44.1641 39.5352 44.6953 38.8477C45.2344 38.1523 45.9414 37.6211 46.8164 37.2539C47.6992 36.8789 48.6484 36.6914 49.6641 36.6914C50.875 36.6914 51.9375 36.8789 52.8516 37.2539C53.7656 37.6211 54.4766 38.168 54.9844 38.8945C55.5 39.6133 55.7578 40.5039 55.7578 41.5664C55.7578 42.1523 55.6211 42.7031 55.3477 43.2188C55.0742 43.7344 54.6914 44.1875 54.1992 44.5781C53.707 44.9688 53.1289 45.2773 52.4648 45.5039C51.8086 45.7227 51.0898 45.832 50.3086 45.832H47.7305V43.8164ZM47.7305 46.7578V44.7891H50.3086C51.1602 44.7891 51.9375 44.8867 52.6406 45.082C53.3438 45.2695 53.9492 45.5508 54.457 45.9258C54.9648 46.3008 55.3555 46.7656 55.6289 47.3203C55.9023 47.8672 56.0391 48.4961 56.0391 49.207C56.0391 50.0039 55.8789 50.7148 55.5586 51.3398C55.2383 51.9648 54.7891 52.4922 54.2109 52.9219C53.6328 53.3516 52.957 53.6797 52.1836 53.9062C51.4102 54.125 50.5703 54.2344 49.6641 54.2344C48.9531 54.2344 48.2422 54.1406 47.5312 53.9531C46.8203 53.7578 46.1719 53.4609 45.5859 53.0625C45 52.6562 44.5273 52.1406 44.168 51.5156C43.8164 50.8828 43.6406 50.1289 43.6406 49.2539H47.6016C47.6016 49.6133 47.6992 49.9414 47.8945 50.2383C48.0977 50.5273 48.3672 50.7578 48.7031 50.9297C49.0391 51.1016 49.4023 51.1875 49.793 51.1875C50.2773 51.1875 50.6875 51.0977 51.0234 50.918C51.3672 50.7305 51.6289 50.4805 51.8086 50.168C51.9883 49.8555 52.0781 49.5078 52.0781 49.125C52.0781 48.5469 51.9805 48.0859 51.7852 47.7422C51.5977 47.3984 51.3203 47.1484 50.9531 46.9922C50.5938 46.8359 50.1602 46.7578 49.6523 46.7578H47.7305Z" fill="#2E2E2E"/>
<path d="M22.2852 48.332V51.3789H10.0039L9.76953 48.9648L16.625 37.9375H19.7422L16.3555 43.4805L13.543 48.332H22.2852ZM20.5625 37.9375V55H16.6133V37.9375H20.5625Z" fill="#2E2E2E"/>
<path d="M26.3433 37.6569L37.657 26.3432" stroke="#2E2E2E" stroke-width="2" stroke-linecap="round"/>
<path d="M26.3433 26.3431L37.657 37.6568" stroke="#2E2E2E" stroke-width="2" stroke-linecap="round"/>
</svg>
