<svg width="64" height="64" viewBox="0 0 64 64" fill="none" xmlns="http://www.w3.org/2000/svg">
<path d="M0 6C0 2.68629 2.68629 0 6 0H58C61.3137 0 64 2.68629 64 6V58C64 61.3137 61.3137 64 58 64H6C2.68629 64 0 61.3137 0 58V6Z" fill="#1374B0"/>
<path d="M15.9297 26.5234L11.7695 40H7.35156L13.6211 22.9375H16.4219L15.9297 26.5234ZM19.375 40L15.2031 26.5234L14.6641 22.9375H17.5L23.8047 40H19.375ZM19.2109 33.6367V36.8125H10.457V33.6367H19.2109ZM32.0195 32.7461H27.625L27.6016 30.0508H31.1641C31.8047 30.0508 32.3164 29.9805 32.6992 29.8398C33.082 29.6914 33.3594 29.4766 33.5312 29.1953C33.7109 28.9141 33.8008 28.5625 33.8008 28.1406C33.8008 27.6562 33.7109 27.2656 33.5312 26.9688C33.3516 26.6719 33.0664 26.457 32.6758 26.3242C32.293 26.1836 31.7969 26.1133 31.1875 26.1133H29.1719V40H25.0586V22.9375H31.1875C32.2422 22.9375 33.1836 23.0352 34.0117 23.2305C34.8398 23.418 35.543 23.707 36.1211 24.0977C36.707 24.4883 37.1523 24.9805 37.457 25.5742C37.7617 26.1602 37.9141 26.8516 37.9141 27.6484C37.9141 28.3438 37.7656 28.9961 37.4688 29.6055C37.1719 30.2148 36.6758 30.7109 35.9805 31.0938C35.293 31.4688 34.3516 31.6641 33.1562 31.6797L32.0195 32.7461ZM31.8555 40H26.6289L28.0352 36.8359H31.8555C32.418 36.8359 32.8672 36.75 33.2031 36.5781C33.5469 36.3984 33.793 36.1641 33.9414 35.875C34.0977 35.5781 34.1758 35.25 34.1758 34.8906C34.1758 34.4531 34.1016 34.0742 33.9531 33.7539C33.8125 33.4336 33.5859 33.1875 33.2734 33.0156C32.9609 32.8359 32.543 32.7461 32.0195 32.7461H28.5625L28.5859 30.0508H32.7227L33.6836 31.1289C34.8242 31.082 35.7266 31.2422 36.3906 31.6094C37.0625 31.9766 37.543 32.4609 37.832 33.0625C38.1211 33.6641 38.2656 34.293 38.2656 34.9492C38.2656 36.0664 38.0234 37 37.5391 37.75C37.0625 38.5 36.3477 39.0625 35.3945 39.4375C34.4414 39.8125 33.2617 40 31.8555 40ZM50.2539 34.2227H54.3555C54.3008 35.4102 53.9805 36.457 53.3945 37.3633C52.8086 38.2695 51.9961 38.9766 50.957 39.4844C49.9258 39.9844 48.707 40.2344 47.3008 40.2344C46.1602 40.2344 45.1406 40.043 44.2422 39.6602C43.3516 39.2773 42.5938 38.7266 41.9688 38.0078C41.3516 37.2891 40.8789 36.418 40.5508 35.3945C40.2305 34.3711 40.0703 33.2188 40.0703 31.9375V31.0117C40.0703 29.7305 40.2383 28.5781 40.5742 27.5547C40.918 26.5234 41.4023 25.6484 42.0273 24.9297C42.6602 24.2031 43.418 23.6484 44.3008 23.2656C45.1836 22.8828 46.1641 22.6914 47.2422 22.6914C48.7266 22.6914 49.9805 22.957 51.0039 23.4883C52.0273 24.0195 52.8203 24.75 53.3828 25.6797C53.9453 26.6016 54.2773 27.6523 54.3789 28.832H50.2773C50.2617 28.1914 50.1523 27.6562 49.9492 27.2266C49.7461 26.7891 49.4258 26.4609 48.9883 26.2422C48.5508 26.0234 47.9688 25.9141 47.2422 25.9141C46.7344 25.9141 46.293 26.0078 45.918 26.1953C45.543 26.3828 45.2305 26.6797 44.9805 27.0859C44.7305 27.4922 44.543 28.0195 44.418 28.668C44.3008 29.3086 44.2422 30.082 44.2422 30.9883V31.9375C44.2422 32.8438 44.2969 33.6172 44.4062 34.2578C44.5156 34.8984 44.6914 35.4219 44.9336 35.8281C45.1758 36.2344 45.4883 36.5352 45.8711 36.7305C46.2617 36.918 46.7383 37.0117 47.3008 37.0117C47.9258 37.0117 48.4531 36.9141 48.8828 36.7188C49.3125 36.5156 49.6445 36.2109 49.8789 35.8047C50.1133 35.3906 50.2383 34.8633 50.2539 34.2227Z" fill="white"/>
</svg>
