<svg width="64" height="64" viewBox="0 0 64 64" fill="none" xmlns="http://www.w3.org/2000/svg">
<path d="M0 6C0 2.68629 2.68629 0 6 0H58C61.3137 0 64 2.68629 64 6V58C64 61.3137 61.3137 64 58 64H6C2.68629 64 0 61.3137 0 58V6Z" fill="#BEDBFF"/>
<path d="M15.1719 11.5234L11.0117 25H6.59375L12.8633 7.9375H15.6641L15.1719 11.5234ZM18.6172 25L14.4453 11.5234L13.9062 7.9375H16.7422L23.0469 25H18.6172ZM18.4531 18.6367V21.8125H9.69922V18.6367H18.4531Z" fill="#2E2E2E"/>
<path d="M51.9492 50.8125V45.5859C51.9492 45.2266 51.8984 44.918 51.7969 44.6602C51.6953 44.4023 51.5352 44.2031 51.3164 44.0625C51.0977 43.9141 50.8047 43.8398 50.4375 43.8398C50.1406 43.8398 49.8867 43.8906 49.6758 43.9922C49.4648 44.0938 49.3047 44.2461 49.1953 44.4492C49.0859 44.6523 49.0312 44.9102 49.0312 45.2227H45.082C45.082 44.6367 45.2109 44.0938 45.4688 43.5938C45.7344 43.0859 46.1094 42.6445 46.5938 42.2695C47.0859 41.8945 47.6719 41.6055 48.3516 41.4023C49.0391 41.1914 49.8047 41.0859 50.6484 41.0859C51.6562 41.0859 52.5547 41.2539 53.3438 41.5898C54.1406 41.9258 54.7695 42.4297 55.2305 43.1016C55.6914 43.7656 55.9219 44.6016 55.9219 45.6094V50.8008C55.9219 51.6289 55.9688 52.2578 56.0625 52.6875C56.1562 53.1094 56.2891 53.4805 56.4609 53.8008V54H52.5C52.3125 53.6094 52.1719 53.1328 52.0781 52.5703C51.9922 52 51.9492 51.4141 51.9492 50.8125ZM52.4297 46.2539L52.4531 48.3633H50.707C50.3398 48.3633 50.0273 48.4141 49.7695 48.5156C49.5195 48.6172 49.3164 48.7578 49.1602 48.9375C49.0117 49.1094 48.9023 49.3047 48.832 49.5234C48.7695 49.7422 48.7383 49.9727 48.7383 50.2148C48.7383 50.4492 48.793 50.6602 48.9023 50.8477C49.0195 51.0273 49.1758 51.168 49.3711 51.2695C49.5664 51.3711 49.7852 51.4219 50.0273 51.4219C50.4648 51.4219 50.8359 51.3398 51.1406 51.1758C51.4531 51.0039 51.6914 50.7969 51.8555 50.5547C52.0195 50.3125 52.1016 50.0859 52.1016 49.875L52.9688 51.4922C52.8125 51.8047 52.6328 52.1211 52.4297 52.4414C52.2344 52.7617 51.9883 53.0586 51.6914 53.332C51.4023 53.5977 51.0469 53.8164 50.625 53.9883C50.2031 54.1523 49.6914 54.2344 49.0898 54.2344C48.3086 54.2344 47.5898 54.0742 46.9336 53.7539C46.2852 53.4336 45.7656 52.9883 45.375 52.418C44.9844 51.8398 44.7891 51.1758 44.7891 50.4258C44.7891 49.7695 44.9062 49.1836 45.1406 48.668C45.3828 48.1523 45.7461 47.7148 46.2305 47.3555C46.7148 46.9961 47.332 46.7227 48.082 46.5352C48.832 46.3477 49.7148 46.2539 50.7305 46.2539H52.4297Z" fill="#2E2E2E"/>
<path d="M26 14H50" stroke="#2E2E2E" stroke-width="2"/>
<path d="M50 35L55.7735 25H44.2265L50 35ZM49 13V26H51V13H49Z" fill="#2E2E2E"/>
<path d="M38 51H14" stroke="#2E2E2E" stroke-width="2"/>
<path d="M14 30L8.2265 40H19.7735L14 30ZM15 52V39H13V52H15Z" fill="#2E2E2E"/>
</svg>
